# xmcd
#
# Track frame offsets:
#	150
#	42730
#	86067
#	107492
#	136946
#	169962
#	206490
#	228274
#	251750
#	285422
#
# Disc length: 4337 seconds
#
# Revision: 1
# Processed by: cddbd v1.5.2PL0 Copyright (c) Steve Scherf et al.
# Submitted via: audiograbber 1.83.01
#
DISCID=8a10ef0a
DTITLE=Grateful Dead - 78-11-23 Capital Centre, Landover MD
DYEAR=1900
DGENRE=
TTITLE0=Mississippi Half-Step
TTITLE1=Franklin's Tower
TTITLE2=New Minglewood Blues
TTITLE3=Stagger Lee
TTITLE4=Looks Like Rain
TTITLE5=Tennessee Jed
TTITLE6=Passenger
TTITLE7=Brown Eyed Women
TTITLE8=The Music Never Stopped
TTITLE9=Samson and Delilah
EXTD=
EXTT0=
EXTT1=
EXTT2=
EXTT3=
EXTT4=
EXTT5=
EXTT6=
EXTT7=
EXTT8=
EXTT9=
PLAYORDER=
